<svg width="21" height="16" viewBox="0 0 21 16" fill="none" xmlns="http://www.w3.org/2000/svg">
<path d="M2.171 3.4249V11.1079C2.171 11.2552 2.158 11.3592 2.132 11.4199L2.158 11.4459C2.21867 11.4199 2.327 11.4069 2.483 11.4069H6.227V12.5249H1.001V3.4249H2.171Z" fill="#2B2B2A"/>
<path d="M17.9371 9.77476C17.9371 12.1911 16.416 13.7123 13.9996 13.7123C11.5833 13.7123 10.0621 12.1911 10.0621 9.77476C10.0621 7.18175 12.8848 3.6812 13.7505 2.66866C13.7813 2.63269 13.8196 2.60381 13.8626 2.58401C13.9056 2.56421 13.9524 2.55396 13.9998 2.55396C14.0471 2.55396 14.0939 2.56421 14.137 2.58401C14.18 2.60381 14.2182 2.63269 14.249 2.66866C15.1144 3.6812 17.9371 7.18175 17.9371 9.77476Z" stroke="black" stroke-width="1.00189" stroke-miterlimit="10"/>
<path d="M16.4073 9.9931C16.4073 10.5156 16.1998 11.0168 15.8303 11.3862C15.4608 11.7557 14.9597 11.9633 14.4371 11.9633" stroke="black" stroke-width="1.00189" stroke-linecap="round" stroke-linejoin="round"/>
</svg>
