<?xml version="1.0" encoding="utf-8"?>
<!-- Generator: Adobe Illustrator 24.3.0, SVG Export Plug-In . SVG Version: 6.00 Build 0)  -->
<svg version="1.1" id="Слой_1" xmlns="http://www.w3.org/2000/svg" xmlns:xlink="http://www.w3.org/1999/xlink" x="0px" y="0px"
	 viewBox="0 0 260 139" style="enable-background:new 0 0 260 139;" xml:space="preserve">
<style type="text/css">
	.st0{fill:#677272;}
	.st1{fill:#3B4848;}
	.st2{fill:#8D9595;}
	.st3{fill:#414F4F;stroke:#8D9595;stroke-width:2;}
	.st4{fill:#8D9595;stroke:#677272;stroke-width:1.0521;}
	.st5{fill:none;stroke:#CED7E7;stroke-width:2;}
	.st6{fill:#FFFFFF;stroke:#8D9595;stroke-width:2;}
	.st7{fill:none;}
	.st8{font-family:'ArialMT';}
	.st9{font-size:12px;}
	.st10{fill:#FFFFFF;}
	.st11{font-size:6px;}
	.st12{fill:#EFF2F6;}
	.st13{fill:#D9DADA;}
	.st14{fill:none;stroke:#8D9595;stroke-width:2;}
	.st15{fill:#1FB826;}
	.st16{font-family:'MSReferenceSansSerif';}
	.st17{font-size:4.7942px;}
	.st18{fill:#595959;}
	.st19{fill:#EFF2F6;stroke:#8D9595;stroke-width:2;}
	.st20{fill:#EB5835;}
	.st21{fill:#FDC65F;}
	.st22{font-size:4.7207px;}
	.st23{font-size:2.7522px;}
</style>
<path class="st0" d="M173.5,18.5h53c1.9,0,3.5,1.6,3.5,3.5v43c0,1.9-1.6,3.5-3.5,3.5h-53c-1.9,0-3.5-1.6-3.5-3.5V22
	C170,20.1,171.6,18.5,173.5,18.5z"/>
<path class="st1" d="M167,31.5h3v26l-3-3.8V31.5z"/>
<path class="st1" d="M233,57.5h-3v-26l3,3.8V57.5z"/>
<path class="st0" d="M83.9,31.5h51.9c2.5,0,4.5,2,4.5,4.5v42c0,2.5-2,4.5-4.5,4.5H83.9c-2.5,0-4.5-2-4.5-4.5V36.1
	C79.3,33.6,81.4,31.5,83.9,31.5z"/>
<path class="st2" d="M82.5,33.5l0.6,0.4l0.7,0.4v0.8v0.8l-0.7,0.4l-0.6,0.4l-0.6-0.4l-0.7-0.4v-0.8v-0.8l0.7-0.4L82.5,33.5z"/>
<path class="st2" d="M82.5,77.6l0.6,0.4l0.7,0.4v0.8V80l-0.7,0.4l-0.6,0.4l-0.6-0.4L81.2,80v-0.8v-0.8l0.7-0.4L82.5,77.6z"/>
<path class="st2" d="M82.5,55l0.6,0.4l0.7,0.4v0.8v0.8l-0.7,0.4L82.5,58l-0.6-0.4l-0.7-0.4v-0.8v-0.8l0.7-0.4L82.5,55z"/>
<path class="st2" d="M136.5,33.5l0.6,0.4l0.7,0.4v0.8v0.8l-0.7,0.4l-0.6,0.4l-0.6-0.4l-0.7-0.4v-0.8v-0.8l0.7-0.4L136.5,33.5z"/>
<path class="st2" d="M136.5,77.6l0.6,0.4l0.7,0.4v0.8V80l-0.7,0.4l-0.6,0.4l-0.6-0.4l-0.7-0.4v-0.8v-0.8l0.7-0.4L136.5,77.6z"/>
<path class="st2" d="M136.5,55l0.6,0.4l0.7,0.4v0.8v0.8l-0.7,0.4l-0.6,0.4l-0.6-0.4l-0.7-0.4v-0.8v-0.8l0.7-0.4L136.5,55z"/>
<path class="st2" d="M109.8,33.5l0.6,0.4l0.7,0.4v0.8v0.8l-0.7,0.4l-0.6,0.4l-0.6-0.4l-0.7-0.4v-0.8v-0.8l0.7-0.4L109.8,33.5z"/>
<path class="st2" d="M109.8,77.6l0.6,0.4l0.7,0.4v0.8V80l-0.7,0.4l-0.6,0.4l-0.6-0.4l-0.7-0.4v-0.8v-0.8l0.7-0.4L109.8,77.6z"/>
<path class="st0" d="M12.3,56.5h11.5c1.3,0,2.3,1,2.3,2.3v23.5c0,1.3-1,2.3-2.3,2.3H12.3c-1.3,0-2.3-1-2.3-2.3V58.8
	C10,57.5,11,56.5,12.3,56.5z"/>
<path class="st2" d="M12.5,57.8l0.6,0.4l0.7,0.4v0.8v0.8l-0.7,0.4L12.5,61l-0.6-0.4l-0.7-0.4v-0.8v-0.8l0.7-0.4L12.5,57.8z"/>
<path class="st2" d="M12.5,80.8l0.6,0.4l0.7,0.4v0.8v0.8l-0.7,0.4L12.5,84l-0.6-0.4L11.2,83v-0.8v-0.8l0.7-0.4L12.5,80.8z"/>
<path class="st2" d="M23.5,57.8l0.6,0.4l0.7,0.4v0.8v0.8l-0.7,0.4L23.5,61l-0.6-0.4L22.2,60v-0.8v-0.8l0.7-0.4L23.5,57.8z"/>
<path class="st2" d="M23.5,80.8l0.6,0.4l0.7,0.4v0.8v0.8l-0.7,0.4L23.5,84l-0.6-0.4L22.2,83v-0.8v-0.8l0.7-0.4L23.5,80.8z"/>
<path class="st1" d="M14,66.5h15v10H14V66.5z"/>
<path class="st3" d="M13.8,61.5h8.5c0.4,0,0.8,0.3,0.8,0.8v16.5c0,0.4-0.3,0.8-0.8,0.8h-8.5c-0.4,0-0.8-0.3-0.8-0.8V62.3
	C13,61.9,13.3,61.5,13.8,61.5z"/>
<path class="st0" d="M57.3,56.5h11.5c1.3,0,2.3,1,2.3,2.3v23.5c0,1.3-1,2.3-2.3,2.3H57.3c-1.3,0-2.3-1-2.3-2.3V58.8
	C55,57.5,56,56.5,57.3,56.5z"/>
<path class="st2" d="M57.5,57.8l0.6,0.4l0.7,0.4v0.8v0.8l-0.7,0.4L57.5,61l-0.6-0.4l-0.7-0.4v-0.8v-0.8l0.7-0.4L57.5,57.8z"/>
<path class="st2" d="M57.5,80.8l0.6,0.4l0.7,0.4v0.8v0.8l-0.7,0.4L57.5,84l-0.6-0.4L56.2,83v-0.8v-0.8l0.7-0.4L57.5,80.8z"/>
<path class="st2" d="M68.5,57.8l0.6,0.4l0.7,0.4v0.8v0.8l-0.7,0.4L68.5,61l-0.6-0.4L67.2,60v-0.8v-0.8l0.7-0.4L68.5,57.8z"/>
<path class="st2" d="M68.5,80.8l0.6,0.4l0.7,0.4v0.8v0.8l-0.7,0.4L68.5,84l-0.6-0.4L67.2,83v-0.8v-0.8l0.7-0.4L68.5,80.8z"/>
<path class="st1" d="M53,66.5h26v10H53V66.5z"/>
<path class="st3" d="M58.8,61.5h8.5c0.4,0,0.8,0.3,0.8,0.8v16.5c0,0.4-0.3,0.8-0.8,0.8h-8.5c-0.4,0-0.8-0.3-0.8-0.8V62.3
	C58,61.9,58.3,61.5,58.8,61.5z"/>
<path class="st0" d="M152.3,29.5h11.5c1.3,0,2.3,1,2.3,2.3v23.5c0,1.3-1,2.3-2.3,2.3h-11.5c-1.3,0-2.3-1-2.3-2.3V31.8
	C150,30.5,151,29.5,152.3,29.5z"/>
<path class="st2" d="M152.5,30.8l0.6,0.4l0.7,0.4v0.8v0.8l-0.7,0.4l-0.6,0.4l-0.6-0.4l-0.7-0.4v-0.8v-0.8l0.7-0.4L152.5,30.8z"/>
<path class="st2" d="M152.5,53.8l0.6,0.4l0.7,0.4v0.8v0.8l-0.7,0.4l-0.6,0.4l-0.6-0.4l-0.7-0.4v-0.8v-0.8l0.7-0.4L152.5,53.8z"/>
<path class="st2" d="M163.5,30.8l0.6,0.4l0.7,0.4v0.8v0.8l-0.7,0.4l-0.6,0.4l-0.6-0.4l-0.7-0.4v-0.8v-0.8l0.7-0.4L163.5,30.8z"/>
<path class="st2" d="M163.5,53.8l0.6,0.4l0.7,0.4v0.8v0.8l-0.7,0.4l-0.6,0.4l-0.6-0.4l-0.7-0.4v-0.8v-0.8l0.7-0.4L163.5,53.8z"/>
<path class="st1" d="M140,39.5h27v10h-27V39.5z"/>
<path class="st3" d="M153.8,34.5h8.5c0.4,0,0.8,0.3,0.8,0.8v16.5c0,0.4-0.3,0.8-0.8,0.8h-8.5c-0.4,0-0.8-0.3-0.8-0.8V35.3
	C153,34.9,153.3,34.5,153.8,34.5z"/>
<path class="st0" d="M236.3,29.5h11.5c1.3,0,2.3,1,2.3,2.3v23.5c0,1.3-1,2.3-2.3,2.3h-11.5c-1.3,0-2.3-1-2.3-2.3V31.8
	C234,30.5,235,29.5,236.3,29.5z"/>
<path class="st2" d="M236.5,30.8l0.6,0.4l0.7,0.4v0.8v0.8l-0.7,0.4l-0.6,0.4l-0.6-0.4l-0.7-0.4v-0.8v-0.8l0.7-0.4L236.5,30.8z"/>
<path class="st2" d="M236.5,53.8l0.6,0.4l0.7,0.4v0.8v0.8l-0.7,0.4l-0.6,0.4l-0.6-0.4l-0.7-0.4v-0.8v-0.8l0.7-0.4L236.5,53.8z"/>
<path class="st2" d="M247.5,30.8l0.6,0.4l0.7,0.4v0.8v0.8l-0.7,0.4l-0.6,0.4l-0.6-0.4l-0.7-0.4v-0.8v-0.8l0.7-0.4L247.5,30.8z"/>
<path class="st2" d="M247.5,53.8l0.6,0.4l0.7,0.4v0.8v0.8l-0.7,0.4l-0.6,0.4l-0.6-0.4l-0.7-0.4v-0.8v-0.8l0.7-0.4L247.5,53.8z"/>
<path class="st1" d="M231,39.5h16v10h-16V39.5z"/>
<path class="st3" d="M237.8,34.5h8.5c0.4,0,0.8,0.3,0.8,0.8v16.5c0,0.4-0.3,0.8-0.8,0.8h-8.5c-0.4,0-0.8-0.3-0.8-0.8V35.3
	C237,34.9,237.3,34.5,237.8,34.5z"/>
<rect x="29.5" y="42.1" class="st4" width="22.9" height="54.9"/>
<rect x="29.3" y="44" class="st0" width="23" height="1.4"/>
<rect x="29.3" y="49.6" class="st0" width="23" height="1.4"/>
<rect x="29.3" y="55.2" class="st0" width="23" height="1.4"/>
<rect x="29.3" y="60.8" class="st0" width="23" height="1.4"/>
<rect x="29.3" y="66.4" class="st0" width="23" height="1.4"/>
<rect x="29.3" y="72" class="st0" width="23" height="1.4"/>
<rect x="29.3" y="77.6" class="st0" width="23" height="1.4"/>
<rect x="29.3" y="83.2" class="st0" width="23" height="1.4"/>
<rect x="29.3" y="88.9" class="st0" width="23" height="1.4"/>
<rect x="29.3" y="94.5" class="st0" width="23" height="1.4"/>
<path class="st0" d="M11.9,20.6l17.1,21h24l17.4-21v-10H11.9V20.6z"/>
<path class="st0" d="M70,118.7L53,97.5H28.9L12,118.7v9.9h58V118.7z"/>
<path class="st5" d="M6,1.5h248c2.8,0,5,2.2,5,5v126c0,2.8-2.2,5-5,5H6c-2.8,0-5-2.2-5-5V6.5C1,3.8,3.2,1.5,6,1.5z"/>
<g id="PS4">
	<path class="st6" d="M87.8,39.1h19.5c0.4,0,0.8,0.3,0.8,0.8v14.5c0,0.4-0.3,0.8-0.8,0.8H87.8c-0.4,0-0.8-0.3-0.8-0.8V39.8
		C87,39.4,87.3,39.1,87.8,39.1z"/>
	<rect x="87.8" y="40.1" class="st7" width="19.1" height="14"/>
	<text transform="matrix(1 0 0 1 94.2627 51.3326)" class="st8 st9">4</text>
</g>
<g id="PS3">
	<path class="st6" d="M111.8,39h19.5c0.4,0,0.8,0.3,0.8,0.8v14.5c0,0.4-0.3,0.8-0.8,0.8h-19.5c-0.4,0-0.8-0.3-0.8-0.8V39.8
		C111,39.4,111.3,39,111.8,39z"/>
	<rect x="111.9" y="40" class="st7" width="19.1" height="14"/>
	<text transform="matrix(1 0 0 1 118.4223 51.2975)" class="st8 st9">3</text>
</g>
<g id="PS6">
	<path class="st6" d="M87.8,60.5h19.5c0.4,0,0.8,0.3,0.8,0.8v14.5c0,0.4-0.3,0.8-0.8,0.8H87.8c-0.4,0-0.8-0.3-0.8-0.8V61.3
		C87,60.9,87.3,60.5,87.8,60.5z"/>
	<rect x="87.9" y="61.2" class="st7" width="19.1" height="14"/>
	<text transform="matrix(1 0 0 1 94.4222 72.4445)" class="st8 st9">6</text>
</g>
<g id="PS5">
	<path class="st6" d="M111.8,60.8h19.5c0.4,0,0.8,0.3,0.8,0.8v14.5c0,0.4-0.3,0.8-0.8,0.8h-19.5c-0.4,0-0.8-0.3-0.8-0.8V61.6
		C111,61.2,111.3,60.8,111.8,60.8z"/>
	<rect x="111.9" y="61.8" class="st7" width="19.1" height="14"/>
	<text transform="matrix(1 0 0 1 118.4223 73.0827)" class="st8 st9">5</text>
</g>
<g id="PS1">
	<rect x="238" y="35.5" class="st10" width="8" height="16"/>
	<rect x="232.4" y="36.5" class="st7" width="19.1" height="14"/>
	<text transform="matrix(1 0 0 1 238.9224 47.7848)" class="st8 st9">1</text>
</g>
<g id="PS2">
	<rect x="154" y="35.5" class="st10" width="8" height="16"/>
	<rect x="148.4" y="36.5" class="st7" width="19.1" height="14"/>
	<text transform="matrix(1 0 0 1 154.9223 47.7848)" class="st8 st9">2</text>
</g>
<g id="PS7">
	<rect x="59" y="62.5" class="st10" width="8" height="16"/>
	<rect x="53.4" y="63.2" class="st7" width="19.1" height="14"/>
	<text transform="matrix(1 0 0 1 59.9223 74.4263)" class="st8 st9">7</text>
</g>
<g id="PS8">
	<rect x="14" y="62.5" class="st10" width="8" height="8"/>
	<rect x="14" y="62.5" class="st7" width="8" height="8.1"/>
	<text transform="matrix(1 0 0 1 16.4677 68.6865)" class="st8 st11">8</text>
</g>
<line class="st7" x1="14" y1="70.5" x2="22" y2="70.5"/>
<line class="st7" x1="21.5" y1="90.9" x2="21.5" y2="90.9"/>
<polygon class="st7" points="14,71 22,71 22,71 "/>
<g id="PS9">
	<rect x="14" y="70.5" class="st10" width="8" height="8.2"/>
	<rect x="14" y="70.6" class="st7" width="8" height="8.1"/>
	<text transform="matrix(1 0 0 1 16.4608 76.7766)" class="st8 st11">9</text>
</g>
<path class="st12" d="M77.4,106.5h78.4c0.3,0,0.4,0.1,0.4,0.4v22c0,0.3-0.1,0.4-0.4,0.4H77.4c-0.3,0-0.4-0.1-0.4-0.4v-22
	C77,106.8,77.3,106.5,77.4,106.5z"/>
<rect x="79.1" y="109" class="st13" width="0.4" height="4.8"/>
<rect x="91.5" y="109" class="st13" width="0.4" height="4.8"/>
<rect x="104.3" y="109" class="st13" width="0.4" height="4.8"/>
<rect x="116.7" y="109" class="st13" width="0.4" height="4.8"/>
<rect x="129" y="109" class="st13" width="0.4" height="4.8"/>
<rect x="141.6" y="109" class="st13" width="0.4" height="4.8"/>
<rect x="154" y="109" class="st13" width="0.4" height="4.8"/>
<path class="st14" d="M77.4,106.5h78.4c0.3,0,0.4,0.1,0.4,0.4v22c0,0.3-0.1,0.4-0.4,0.4H77.4c-0.3,0-0.4-0.1-0.4-0.4v-22
	C77,106.8,77.3,106.5,77.4,106.5z"/>
<g id="oil_x5F_level">
	<rect id="oil_x5F_level_x5F_loader" x="79.1" y="115" class="st15" width="75.2" height="12.4"/>
	<text transform="matrix(1.0017 0 0 1 81.2578 126.2393)" class="st16 st17">УРОВЕНЬ МАСЛА, %</text>
	<text id="oil_x5F_level_x5F_value" transform="matrix(1.0017 0 0 1 81.334 120.5117)" class="st16 st17">100</text>
</g>
<text transform="matrix(1.0017 0 0 1 84.2183 113.0557)" class="st18 st16 st17">0</text>
<text transform="matrix(1.0017 0 0 1 94.8179 113.0557)" class="st18 st16 st17">20</text>
<text transform="matrix(1.0017 0 0 1 107.4512 113.0557)" class="st18 st16 st17">40</text>
<text transform="matrix(1.0017 0 0 1 119.7861 113.1279)" class="st18 st16 st17">60</text>
<text transform="matrix(1.0017 0 0 1 132.9307 113.0557)" class="st18 st16 st17">80</text>
<text transform="matrix(1.0017 0 0 1 143.126 113.1367)" class="st18 st16 st17">100</text>
<path class="st19" d="M163.2,106.2h89.3c0.3,0,0.4,0.1,0.4,0.4V129c0,0.3-0.1,0.4-0.4,0.4h-89.3c-0.3,0-0.4-0.1-0.4-0.4v-22.4
	C162.7,106.4,163,106.2,163.2,106.2z"/>
<rect x="164.8" y="108.5" class="st13" width="0.4" height="4.8"/>
<rect x="176.9" y="108.5" class="st13" width="0.4" height="4.8"/>
<rect x="189.6" y="108.5" class="st13" width="0.4" height="4.8"/>
<rect x="201.7" y="108.5" class="st13" width="0.4" height="4.8"/>
<rect x="213.9" y="108.5" class="st13" width="0.4" height="4.8"/>
<rect x="226.1" y="108.5" class="st13" width="0.4" height="4.8"/>
<rect x="238.3" y="108.5" class="st13" width="0.4" height="4.8"/>
<rect x="250.5" y="108.5" class="st13" width="0.4" height="4.8"/>
<rect x="164.8" y="114.4" class="st20" width="0.8" height="13"/>
<rect x="250.1" y="114.4" class="st20" width="0.8" height="13"/>
<g id="oil_x5F_presure">
	<rect id="oil_x5F_presure_x5F_loader" x="165.6" y="114.4" class="st21" width="84.5" height="13"/>
	<text transform="matrix(1 0 0 1 167.0693 126.0996)" class="st16 st22">ДАВЛЕНИЕ МАСЛА, кг/см</text>
	<text transform="matrix(1 0 0 1 227.8886 124.5273)" class="st16 st23">2</text>
	<text id="oil_x5F_presue_x5F_val" transform="matrix(1 0 0 1 167.5908 120.0684)" class="st16 st22">6</text>
</g>
<text transform="matrix(1 0 0 1 169.2861 112.8086)" class="st18 st16 st22">0</text>
<text transform="matrix(1 0 0 1 182.2841 112.8086)" class="st18 st16 st22">1</text>
<text transform="matrix(1 0 0 1 194.1132 112.8086)" class="st18 st16 st22">2</text>
<text transform="matrix(1 0 0 1 206.3544 112.8086)" class="st18 st16 st22">3</text>
<text transform="matrix(1 0 0 1 218.8525 112.8086)" class="st18 st16 st22">4</text>
<text transform="matrix(1 0 0 1 230.7626 112.8086)" class="st18 st16 st22">5</text>
<text transform="matrix(1 0 0 1 242.8867 112.8086)" class="st18 st16 st22">6</text>
</svg>
