<svg width="21" height="16" viewBox="0 0 21 16" fill="none" xmlns="http://www.w3.org/2000/svg">
<path d="M6.591 3.4249V4.5429H4.264C4.09933 4.5429 3.98667 4.5299 3.926 4.5039L3.913 4.5299C3.939 4.59057 3.952 4.69457 3.952 4.8419V12.5249H2.782V4.8419C2.782 4.69457 2.795 4.59057 2.821 4.5299L2.795 4.5039C2.73433 4.5299 2.626 4.5429 2.47 4.5429H0.13V3.4249H6.591Z" fill="#2B2B2A"/>
<g clip-path="url(#clip0_392_13975)">
<path d="M15.4139 9.29114C15.3828 9.27143 15.3572 9.24417 15.3394 9.21191C15.3216 9.17964 15.3123 9.14341 15.3122 9.10657V3.21344C15.3122 2.86534 15.1739 2.5315 14.9278 2.28536C14.6817 2.03922 14.3478 1.90094 13.9997 1.90094C13.6516 1.90094 13.3178 2.03922 13.0716 2.28536C12.8255 2.5315 12.6872 2.86534 12.6872 3.21344V9.10657C12.6872 9.14334 12.6778 9.1795 12.6601 9.21171C12.6424 9.24392 12.6168 9.27115 12.5858 9.29086C12.197 9.54411 11.8811 9.89442 11.6691 10.3072C11.4572 10.7199 11.3567 11.1808 11.3775 11.6443C11.4087 12.3293 11.7068 12.9749 12.2079 13.4429C12.7091 13.911 13.3734 14.1644 14.0589 14.1489C14.7445 14.1334 15.3967 13.8503 15.8762 13.3602C16.3557 12.87 16.6244 12.2116 16.6247 11.5259C16.6249 11.0821 16.5143 10.6452 16.3028 10.2549C16.0914 9.86468 15.7859 9.53339 15.4139 9.29114V9.29114Z" stroke="black" stroke-width="1.00189" stroke-miterlimit="10" stroke-linecap="round"/>
<path d="M13.9997 4.08881V11.5263" stroke="black" stroke-width="1.00189" stroke-miterlimit="10" stroke-linecap="round"/>
<path d="M14.0005 12.8394C14.7259 12.8394 15.3139 12.2513 15.3139 11.5259C15.3139 10.8005 14.7259 10.2125 14.0005 10.2125C13.2751 10.2125 12.687 10.8005 12.687 11.5259C12.687 12.2513 13.2751 12.8394 14.0005 12.8394Z" fill="black"/>
</g>
<defs>
<clipPath id="clip0_392_13975">
<rect width="14" height="14" fill="white" transform="translate(7 1.0249)"/>
</clipPath>
</defs>
</svg>
