<?xml version="1.0" encoding="utf-8"?>
<!-- Generator: Adobe Illustrator 24.3.0, SVG Export Plug-In . SVG Version: 6.00 Build 0)  -->
<!DOCTYPE svg PUBLIC "-//W3C//DTD SVG 1.1//EN" "http://www.w3.org/Graphics/SVG/1.1/DTD/svg11.dtd" [
	<!ENTITY ns_extend "http://ns.adobe.com/Extensibility/1.0/">
	<!ENTITY ns_ai "http://ns.adobe.com/AdobeIllustrator/10.0/">
	<!ENTITY ns_graphs "http://ns.adobe.com/Graphs/1.0/">
	<!ENTITY ns_vars "http://ns.adobe.com/Variables/1.0/">
	<!ENTITY ns_imrep "http://ns.adobe.com/ImageReplacement/1.0/">
	<!ENTITY ns_sfw "http://ns.adobe.com/SaveForWeb/1.0/">
	<!ENTITY ns_custom "http://ns.adobe.com/GenericCustomNamespace/1.0/">
	<!ENTITY ns_adobe_xpath "http://ns.adobe.com/XPath/1.0/">
]>
<svg version="1.1" id="Ğ¡Ğ»Ğ¾Ğ¹_1" xmlns:x="&ns_extend;" xmlns:i="&ns_ai;" xmlns:graph="&ns_graphs;"
	 xmlns="http://www.w3.org/2000/svg" xmlns:xlink="http://www.w3.org/1999/xlink" x="0px" y="0px" viewBox="0 0 38 21"
	 style="enable-background:new 0 0 38 21;" xml:space="preserve">
<path style="fill:#FCDBCB;stroke:#FF4B35;" d="M2.5,1h33C36.3,1,37,1.7,37,2.5v16c0,0.8-0.7,1.5-1.5,1.5h-33C1.7,20,1,19.4,1,18.5
	v-16C1,1.7,1.7,1,2.5,1z"/>
<rect x="3" y="8.1" style="fill:none;" width="14.6" height="8.3"/>
<text transform="matrix(1 0 0 1 683 384)" style="font-family:'ArialMT'; font-size:12px;">#1ed9</text>
<text transform="matrix(1 0 0 1 714.1 384)" style="font-family:'ArialMT'; font-size:12px;">c</text>
<text transform="matrix(1 0 0 1 719.4 384)" style="font-family:'ArialMT'; font-size:12px;">c</text>
<text transform="matrix(1 0 0 1 7.7645 15.101)" style="font-family:'ArialMT'; font-size:10px;">T</text>
<g>
	<defs>
		<rect id="SVGID_1_" x="17.6" y="3.5" width="14" height="14"/>
	</defs>
	<clipPath id="SVGID_2_">
		<use xlink:href="#SVGID_1_"  style="overflow:visible;"/>
	</clipPath>
	<g style="clip-path:url(#SVGID_2_);">
		<path style="fill:none;stroke:#000000;stroke-width:1.0019;stroke-linecap:round;stroke-miterlimit:10;" d="M26.014,11.766
			c-0.031-0.02-0.057-0.047-0.075-0.079c-0.018-0.032-0.027-0.069-0.027-0.105V5.689c0-0.348-0.138-0.682-0.384-0.928
			c-0.246-0.246-0.58-0.384-0.928-0.384c-0.348,0-0.682,0.138-0.928,0.384c-0.246,0.246-0.384,0.58-0.384,0.928v5.893
			c0,0.037-0.009,0.073-0.027,0.105c-0.018,0.032-0.043,0.059-0.074,0.079c-0.389,0.253-0.705,0.604-0.917,1.016
			c-0.212,0.413-0.312,0.874-0.292,1.337c0.031,0.685,0.329,1.331,0.83,1.799c0.501,0.468,1.166,0.722,1.851,0.706
			c0.686-0.016,1.338-0.299,1.817-0.789c0.479-0.49,0.748-1.149,0.749-1.834c0-0.444-0.11-0.881-0.322-1.271
			C26.691,12.34,26.386,12.008,26.014,11.766L26.014,11.766z"/>
		<path style="fill:none;stroke:#000000;stroke-width:1.0019;stroke-linecap:round;stroke-miterlimit:10;" d="M24.6,6.564v7.437"/>
		<path d="M24.601,15.315c0.725,0,1.313-0.588,1.313-1.314c0-0.725-0.588-1.313-1.313-1.313s-1.313,0.588-1.313,1.313
			C23.287,14.726,23.875,15.315,24.601,15.315z"/>
	</g>
</g>
</svg>
