<svg width="25" height="16" viewBox="0 0 25 16" fill="none" xmlns="http://www.w3.org/2000/svg">
<path d="M8.151 3.4249L4.16 12.6549H4.03L0.026 3.4249H1.404L3.614 8.8719C3.80467 9.34857 3.95633 9.8989 4.069 10.5229H4.121C4.20767 9.95957 4.35933 9.40924 4.576 8.8719L6.786 3.4249H8.151Z" fill="#2B2B2A"/>
<path d="M16.695 6.28168C16.2681 6.76219 16.0323 7.38261 16.0323 8.02536C16.0323 8.66812 16.2681 9.28854 16.695 9.76905" stroke="black" stroke-width="1.00189" stroke-linecap="round" stroke-linejoin="round"/>
<path d="M19.3351 9.76905C19.762 9.28854 19.9978 8.66812 19.9978 8.02536C19.9978 7.38261 19.762 6.76219 19.3351 6.28168" stroke="black" stroke-width="1.00189" stroke-linecap="round" stroke-linejoin="round"/>
<path d="M15.301 4.88806C14.5057 5.73896 14.0633 6.86021 14.0633 8.02494C14.0633 9.18967 14.5057 10.3109 15.301 11.1618" stroke="black" stroke-width="1.00189" stroke-linecap="round" stroke-linejoin="round"/>
<path d="M20.7278 11.1618C21.5232 10.3109 21.9656 9.18967 21.9656 8.02494C21.9656 6.86021 21.5232 5.73896 20.7278 4.88806" stroke="black" stroke-width="1.00189" stroke-linecap="round" stroke-linejoin="round"/>
<path d="M22.2666 12.3994C23.3409 11.1953 23.9346 9.638 23.9346 8.02435C23.9346 6.4107 23.3409 4.85346 22.2666 3.64935" stroke="black" stroke-width="1.00189" stroke-linecap="round" stroke-linejoin="round"/>
<path d="M13.7624 3.64935C12.6882 4.85346 12.0945 6.4107 12.0945 8.02435C12.0945 9.638 12.6882 11.1953 13.7624 12.3994" stroke="black" stroke-width="1.00189" stroke-linecap="round" stroke-linejoin="round"/>
</svg>
