<?xml version="1.0" encoding="utf-8"?>
<!-- Generator: Adobe Illustrator 24.3.0, SVG Export Plug-In . SVG Version: 6.00 Build 0)  -->
<!DOCTYPE svg PUBLIC "-//W3C//DTD SVG 1.1//EN" "http://www.w3.org/Graphics/SVG/1.1/DTD/svg11.dtd" [
	<!ENTITY ns_extend "http://ns.adobe.com/Extensibility/1.0/">
	<!ENTITY ns_ai "http://ns.adobe.com/AdobeIllustrator/10.0/">
	<!ENTITY ns_graphs "http://ns.adobe.com/Graphs/1.0/">
	<!ENTITY ns_vars "http://ns.adobe.com/Variables/1.0/">
	<!ENTITY ns_imrep "http://ns.adobe.com/ImageReplacement/1.0/">
	<!ENTITY ns_sfw "http://ns.adobe.com/SaveForWeb/1.0/">
	<!ENTITY ns_custom "http://ns.adobe.com/GenericCustomNamespace/1.0/">
	<!ENTITY ns_adobe_xpath "http://ns.adobe.com/XPath/1.0/">
]>
<svg version="1.1" id="Слой_1" xmlns:x="&ns_extend;" xmlns:i="&ns_ai;" xmlns:graph="&ns_graphs;"
	 xmlns="http://www.w3.org/2000/svg" xmlns:xlink="http://www.w3.org/1999/xlink" x="0px" y="0px" viewBox="0 0 38 21"
	 style="enable-background:new 0 0 38 21;" xml:space="preserve">
<metadata>
	<sfw  xmlns="&ns_sfw;">
		<slices></slices>
		<sliceSourceBounds  bottomLeftOrigin="true" height="386.5" width="724.2" x="0.5" y="-366"></sliceSourceBounds>
	</sfw>
</metadata>
<path style="fill:#FCDBCB;stroke:#FF4B35;" d="M2.5,1h33C36.3,1,37,1.7,37,2.5v16c0,0.8-0.7,1.5-1.5,1.5h-33C1.7,20,1,19.4,1,18.5
	v-16C1,1.7,1.7,1,2.5,1z"/>
<g>
	<path style="fill:none;stroke:#E32112;stroke-width:1.0019;stroke-linecap:round;stroke-linejoin:round;" d="M23.5,8.5
		c-0.5,0.5-0.8,1.3-0.8,2c0,0.7,0.3,1.4,0.8,2"/>
	<path style="fill:none;stroke:#E32112;stroke-width:1.0019;stroke-linecap:round;stroke-linejoin:round;" d="M26.5,12.5
		c0.5-0.5,0.8-1.3,0.8-2c0-0.7-0.3-1.4-0.8-2"/>
	<path style="fill:none;stroke:#E32112;stroke-width:1.0019;stroke-linecap:round;stroke-linejoin:round;" d="M21.9,6.9
		c-0.9,1-1.4,2.3-1.4,3.6c0,1.3,0.5,2.6,1.4,3.6"/>
	<path style="fill:none;stroke:#E32112;stroke-width:1.0019;stroke-linecap:round;stroke-linejoin:round;" d="M28.1,14.1
		c0.9-1,1.4-2.3,1.4-3.6c0-1.3-0.5-2.6-1.4-3.6"/>
	<path style="fill:none;stroke:#E32112;stroke-width:1.0019;stroke-linecap:round;stroke-linejoin:round;" d="M29.9,15.5
		c1.2-1.4,1.9-3.2,1.9-5c0-1.8-0.7-3.6-1.9-5"/>
	<path style="fill:none;stroke:#E32112;stroke-width:1.0019;stroke-linecap:round;stroke-linejoin:round;" d="M20.2,5.5
		c-1.2,1.4-1.9,3.2-1.9,5c0,1.8,0.7,3.6,1.9,5"/>
</g>
<rect x="3" y="8.1" style="fill:none;" width="14.6" height="8.3"/>
<text transform="matrix(1 0 0 1 683 384)"><tspan x="0" y="0" style="font-family:'MyriadPro-Regular'; font-size:12px;">#1ed9</tspan><tspan x="31.1" y="0" style="font-family:'MyriadPro-Regular'; font-size:12px;">c</tspan><tspan x="36.4" y="0" style="font-family:'MyriadPro-Regular'; font-size:12px;">c</tspan></text>
<text transform="matrix(1 0 0 1 3.9275 14.1105)" style="font-family:'MyriadPro-Regular'; font-size:10px;">VO</text>
</svg>
