<?xml version="1.0" encoding="utf-8"?>
<!-- Generator: Adobe Illustrator 24.3.0, SVG Export Plug-In . SVG Version: 6.00 Build 0)  -->
<!DOCTYPE svg PUBLIC "-//W3C//DTD SVG 1.1//EN" "http://www.w3.org/Graphics/SVG/1.1/DTD/svg11.dtd" [
	<!ENTITY ns_extend "http://ns.adobe.com/Extensibility/1.0/">
	<!ENTITY ns_ai "http://ns.adobe.com/AdobeIllustrator/10.0/">
	<!ENTITY ns_graphs "http://ns.adobe.com/Graphs/1.0/">
	<!ENTITY ns_vars "http://ns.adobe.com/Variables/1.0/">
	<!ENTITY ns_imrep "http://ns.adobe.com/ImageReplacement/1.0/">
	<!ENTITY ns_sfw "http://ns.adobe.com/SaveForWeb/1.0/">
	<!ENTITY ns_custom "http://ns.adobe.com/GenericCustomNamespace/1.0/">
	<!ENTITY ns_adobe_xpath "http://ns.adobe.com/XPath/1.0/">
]>
<svg version="1.1" id="Ğ¡Ğ»Ğ¾Ğ¹_1" xmlns:x="&ns_extend;" xmlns:i="&ns_ai;" xmlns:graph="&ns_graphs;"
	 xmlns="http://www.w3.org/2000/svg" xmlns:xlink="http://www.w3.org/1999/xlink" x="0px" y="0px" viewBox="0 0 38 21"
	 style="enable-background:new 0 0 38 21;" xml:space="preserve">

<path style="fill:#FCDBCB;stroke:#FF4B35;" d="M2.498,1.024h33.004c0.828,0,1.5,0.672,1.5,1.5v16.004c0,0.828-0.672,1.5-1.5,1.5
	H2.498c-0.828,0-1.5-0.672-1.5-1.5V2.524C0.998,1.695,1.67,1.024,2.498,1.024z"/>
<g>
	<path style="fill:none;stroke:#E32112;stroke-width:1.0019;stroke-linecap:round;stroke-linejoin:round;" d="M23.507,8.532
		c-0.488,0.549-0.757,1.258-0.757,1.993c0,0.735,0.27,1.444,0.757,1.993"/>
	<path style="fill:none;stroke:#E32112;stroke-width:1.0019;stroke-linecap:round;stroke-linejoin:round;" d="M26.525,12.519
		c0.488-0.549,0.757-1.259,0.757-1.993c0-0.735-0.27-1.444-0.757-1.993"/>
	<path style="fill:none;stroke:#E32112;stroke-width:1.0019;stroke-linecap:round;stroke-linejoin:round;" d="M21.913,6.939
		c-0.909,0.973-1.415,2.254-1.415,3.586c0,1.331,0.506,2.613,1.415,3.586"/>
	<path style="fill:none;stroke:#E32112;stroke-width:1.0019;stroke-linecap:round;stroke-linejoin:round;" d="M28.117,14.111
		c0.909-0.973,1.415-2.254,1.415-3.586c0-1.331-0.506-2.613-1.415-3.586"/>
	<path style="fill:none;stroke:#E32112;stroke-width:1.0019;stroke-linecap:round;stroke-linejoin:round;" d="M29.876,15.525
		c1.228-1.376,1.907-3.156,1.907-5.001c0-1.845-0.679-3.625-1.907-5.001"/>
	<path style="fill:none;stroke:#E32112;stroke-width:1.0019;stroke-linecap:round;stroke-linejoin:round;" d="M20.154,5.523
		c-1.228,1.376-1.907,3.157-1.907,5.001c0,1.845,0.679,3.625,1.907,5.001"/>
</g>
<rect x="2.979" y="8.106" style="fill:none;" width="14.638" height="8.34"/>
<text transform="matrix(1 0 0 1 683 384)"><tspan x="0" y="0" style="font-family:'MyriadPro-Regular'; font-size:12px;">#1ed9</tspan><tspan x="31.056" y="0" style="font-family:'MyriadPro-Regular'; font-size:12px;">c</tspan><tspan x="36.359" y="0" style="font-family:'MyriadPro-Regular'; font-size:12px;">c</tspan></text>
<text transform="matrix(1 0 0 1 3.9275 14.1105)"><tspan x="0" y="0" style="font-family:'MyriadPro-Regular'; font-size:10px;">V</tspan><tspan x="5.74" y="0" style="font-family:'MyriadPro-Regular'; font-size:10px;">V</tspan></text>
</svg>
